<?xml version="1.0" encoding="UTF-8" standalone="no"?>
<!DOCTYPE svg PUBLIC "-//W3C//DTD SVG 1.1//EN" "http://www.w3.org/Graphics/SVG/1.1/DTD/svg11.dtd">
<svg version="1.1" xmlns="http://www.w3.org/2000/svg" xmlns:xlink="http://www.w3.org/1999/xlink" preserveAspectRatio="xMidYMid meet" viewBox="0 0 200 200" width="200" height="200"><defs><path d="M200 100C200 155.19 155.19 200 100 200C44.81 200 0 155.19 0 100C0 44.81 44.81 0 100 0C155.19 0 200 44.81 200 100Z" id="d1NJ6Qt1sp"></path><path d="M100 30L40 65L40 135L100 170L160 135L160 65L100 30Z" id="a392Xit7Dp"></path><path d="M125 100C125 113.8 113.8 125 100 125C86.2 125 75 113.8 75 100C75 86.2 86.2 75 100 75C113.8 75 125 86.2 125 100Z" id="b87vIipsA"></path></defs><g><g><g><use xlink:href="#d1NJ6Qt1sp" opacity="1" fill="#374c72" fill-opacity="1"></use></g><g><use xlink:href="#a392Xit7Dp" opacity="1" fill="#ffffff" fill-opacity="1"></use></g><g><use xlink:href="#b87vIipsA" opacity="1" fill="#374c72" fill-opacity="1"></use></g></g></g></svg>