<?xml version="1.0" encoding="UTF-8" standalone="no"?>
<!DOCTYPE svg PUBLIC "-//W3C//DTD SVG 1.1//EN" "http://www.w3.org/Graphics/SVG/1.1/DTD/svg11.dtd">
<svg version="1.1" xmlns="http://www.w3.org/2000/svg" xmlns:xlink="http://www.w3.org/1999/xlink" preserveAspectRatio="xMidYMid meet" viewBox="0 0 200 200" width="200" height="200"><defs><path d="M200 100C200 155.19 155.19 200 100 200C44.81 200 0 155.19 0 100C0 44.81 44.81 0 100 0C155.19 0 200 44.81 200 100Z" id="cheeNfbHh"></path><path d="M146.72 50C151.98 50 156.25 54.27 156.25 59.53C156.25 75.12 156.25 112.38 156.25 127.97C156.25 133.23 151.98 137.5 146.72 137.5C126.13 137.5 73.87 137.5 53.28 137.5C48.02 137.5 43.75 133.23 43.75 127.97C43.75 112.38 43.75 75.12 43.75 59.53C43.75 54.27 48.02 50 53.28 50C73.87 50 126.13 50 146.72 50Z" id="c6WCWSpyP4"></path><path d="M43.6 153.82L113.6 60.1L43.6 60.1L43.6 153.82Z" id="bXe2OnVbT"></path></defs><g><g><g><use xlink:href="#cheeNfbHh" opacity="1" fill="#374c72" fill-opacity="1"></use></g><g><use xlink:href="#c6WCWSpyP4" opacity="1" fill="#ffffff" fill-opacity="1"></use></g><g><use xlink:href="#bXe2OnVbT" opacity="1" fill="#ffffff" fill-opacity="1"></use></g></g></g></svg>